<svg xmlns="http://www.w3.org/2000/svg" width="128" height="128" viewBox="0 0 24 24"><path fill="#2196f3" d="M12.575 13.891 8.79 12.308a.758.758 0 0 0-.705.068.747.747 0 0 0-.335.624v5.75a.748.748 0 0 0 .75.75c.207 0 .41-.086.555-.246l3.786-4.167a.749.749 0 0 0-.266-1.196z"/><path fill="#64b5f6" d="M23.76.2a.75.75 0 0 0-.782-.149l-22.5 8.75a.75.75 0 0 0 .005 1.4l17.75 6.75a.749.749 0 0 0 .985-.481l4.75-15.5A.754.754 0 0 0 23.76.2z"/><g fill="#2196f3"><path d="M7.75 13 19 5l-8.417 9.333zM8.236 19.854a1 1 0 0 1-.832-1.553 8.96 8.96 0 0 0 .456-.759 1 1 0 0 1 1.78.913s-.203.399-.569.951a.998.998 0 0 1-.835.448zM4.25 22.75c-.613 0-1.14-.072-1.609-.22a1 1 0 0 1 .6-1.908c.413.13 1.015.241 1.663.006a1 1 0 1 1 .681 1.881c-.441.16-.891.241-1.335.241zM1.029 19.251a1 1 0 0 1-.997-.935A16.958 16.958 0 0 1 0 17.25a1 1 0 1 1 2 0c0 .331.009.644.028.936a1 1 0 0 1-.933 1.063l-.066.002z"/></g></svg>
